<?xml version="1.0" encoding="us-ascii" standalone="no"?><svg xmlns="http://www.w3.org/2000/svg" xmlns:xlink="http://www.w3.org/1999/xlink" contentStyleType="text/css" height="293px" preserveAspectRatio="none" style="width:1131px;height:293px;background:#FFFFFF;" version="1.1" viewBox="0 0 1131 293" width="1131px" zoomAndPan="magnify"><defs/><g><!--cluster Swarm Cluster--><g id="cluster_Swarm Cluster"><rect fill="none" height="114" rx="2.5" ry="2.5" style="stroke:#181818;stroke-width:1.0;" width="1118" x="7" y="173"/><text fill="#000000" font-family="sans-serif" font-size="14" font-weight="bold" lengthAdjust="spacing" textLength="116" x="508" y="187.9951">Swarm Cluster</text></g><!--cluster lh--><g id="cluster_lh"><polygon fill="#ADD8E6" points="474,16,484,6,658,6,658,114,648,124,474,124,474,16" style="stroke:#008000;stroke-width:1.0;"/><line style="stroke:#008000;stroke-width:1.0;" x1="648" x2="658" y1="16" y2="6"/><line style="stroke:#008000;stroke-width:1.0;" x1="474" x2="648" y1="16" y2="16"/><line style="stroke:#008000;stroke-width:1.0;" x1="648" x2="648" y1="16" y2="124"/><text fill="#000000" font-family="sans-serif" font-size="14" font-style="italic" lengthAdjust="spacing" textLength="86" x="519" y="31.9951">&#171;Your Host&#187;</text><text fill="#000000" font-family="sans-serif" font-size="14" font-weight="bold" lengthAdjust="spacing" textLength="71" x="526.5" y="48.292">localhost</text></g><!--entity tn1--><g id="elem_tn1"><polygon fill="#87CEFA" points="23.5,218,33.5,208,212.5,208,212.5,260.5938,202.5,270.5938,23.5,270.5938,23.5,218" style="stroke:#008000;stroke-width:0.5;"/><line style="stroke:#008000;stroke-width:0.5;" x1="202.5" x2="212.5" y1="218" y2="208"/><line style="stroke:#008000;stroke-width:0.5;" x1="23.5" x2="202.5" y1="218" y2="218"/><line style="stroke:#008000;stroke-width:0.5;" x1="202.5" x2="202.5" y1="218" y2="270.5938"/><text fill="#000000" font-family="sans-serif" font-size="14" font-style="italic" lengthAdjust="spacing" textLength="106" x="60" y="240.9951">&#171;Swarm Node&#187;</text><text fill="#000000" font-family="sans-serif" font-size="14" lengthAdjust="spacing" textLength="149" x="38.5" y="257.292">custom-prefix-node-1</text></g><!--entity tn2--><g id="elem_tn2"><polygon fill="#87CEFA" points="247.5,218,257.5,208,436.5,208,436.5,260.5938,426.5,270.5938,247.5,270.5938,247.5,218" style="stroke:#008000;stroke-width:0.5;"/><line style="stroke:#008000;stroke-width:0.5;" x1="426.5" x2="436.5" y1="218" y2="208"/><line style="stroke:#008000;stroke-width:0.5;" x1="247.5" x2="426.5" y1="218" y2="218"/><line style="stroke:#008000;stroke-width:0.5;" x1="426.5" x2="426.5" y1="218" y2="270.5938"/><text fill="#000000" font-family="sans-serif" font-size="14" font-style="italic" lengthAdjust="spacing" textLength="106" x="284" y="240.9951">&#171;Swarm Node&#187;</text><text fill="#000000" font-family="sans-serif" font-size="14" lengthAdjust="spacing" textLength="149" x="262.5" y="257.292">custom-prefix-node-2</text></g><!--entity tn3--><g id="elem_tn3"><polygon fill="#87CEFA" points="471.5,218,481.5,208,660.5,208,660.5,260.5938,650.5,270.5938,471.5,270.5938,471.5,218" style="stroke:#008000;stroke-width:0.5;"/><line style="stroke:#008000;stroke-width:0.5;" x1="650.5" x2="660.5" y1="218" y2="208"/><line style="stroke:#008000;stroke-width:0.5;" x1="471.5" x2="650.5" y1="218" y2="218"/><line style="stroke:#008000;stroke-width:0.5;" x1="650.5" x2="650.5" y1="218" y2="270.5938"/><text fill="#000000" font-family="sans-serif" font-size="14" font-style="italic" lengthAdjust="spacing" textLength="106" x="508" y="240.9951">&#171;Swarm Node&#187;</text><text fill="#000000" font-family="sans-serif" font-size="14" lengthAdjust="spacing" textLength="149" x="486.5" y="257.292">custom-prefix-node-3</text></g><!--entity tn4--><g id="elem_tn4"><polygon fill="#87CEFA" points="695.5,218,705.5,208,884.5,208,884.5,260.5938,874.5,270.5938,695.5,270.5938,695.5,218" style="stroke:#008000;stroke-width:0.5;"/><line style="stroke:#008000;stroke-width:0.5;" x1="874.5" x2="884.5" y1="218" y2="208"/><line style="stroke:#008000;stroke-width:0.5;" x1="695.5" x2="874.5" y1="218" y2="218"/><line style="stroke:#008000;stroke-width:0.5;" x1="874.5" x2="874.5" y1="218" y2="270.5938"/><text fill="#000000" font-family="sans-serif" font-size="14" font-style="italic" lengthAdjust="spacing" textLength="106" x="732" y="240.9951">&#171;Swarm Node&#187;</text><text fill="#000000" font-family="sans-serif" font-size="14" lengthAdjust="spacing" textLength="149" x="710.5" y="257.292">custom-prefix-node-4</text></g><!--entity tn5--><g id="elem_tn5"><polygon fill="#87CEFA" points="919.5,218,929.5,208,1108.5,208,1108.5,260.5938,1098.5,270.5938,919.5,270.5938,919.5,218" style="stroke:#008000;stroke-width:0.5;"/><line style="stroke:#008000;stroke-width:0.5;" x1="1098.5" x2="1108.5" y1="218" y2="208"/><line style="stroke:#008000;stroke-width:0.5;" x1="919.5" x2="1098.5" y1="218" y2="218"/><line style="stroke:#008000;stroke-width:0.5;" x1="1098.5" x2="1098.5" y1="218" y2="270.5938"/><text fill="#000000" font-family="sans-serif" font-size="14" font-style="italic" lengthAdjust="spacing" textLength="106" x="956" y="240.9951">&#171;Swarm Node&#187;</text><text fill="#000000" font-family="sans-serif" font-size="14" lengthAdjust="spacing" textLength="149" x="934.5" y="257.292">custom-prefix-node-5</text></g><!--entity dd--><g id="elem_dd"><rect fill="#F8F8FF" height="46.2969" rx="2.5" ry="2.5" style="stroke:#181818;stroke-width:0.5;" width="152" x="490" y="62"/><rect fill="#F8F8FF" height="10" style="stroke:#181818;stroke-width:0.5;" width="15" x="622" y="67"/><rect fill="#F8F8FF" height="2" style="stroke:#181818;stroke-width:0.5;" width="4" x="620" y="69"/><rect fill="#F8F8FF" height="2" style="stroke:#181818;stroke-width:0.5;" width="4" x="620" y="73"/><text fill="#000000" font-family="sans-serif" font-size="14" lengthAdjust="spacing" textLength="112" x="505" y="94.9951">docker-machine</text></g><!--link dd to tn1--><g id="link_dd_tn1"><path d="M489.88,96.12 C420.17,107.17 315.2,128.39 230,165 C205.96,175.33 181.42,190.77 161.46,204.84 " fill="none" id="dd-to-tn1" style="stroke:#181818;stroke-width:1.0;stroke-dasharray:1.0,3.0;"/><polygon fill="#181818" points="157.28,207.82,166.9312,205.8566,161.3525,204.9192,162.2899,199.3406,157.28,207.82" style="stroke:#181818;stroke-width:1.0;"/><text fill="#000000" font-family="sans-serif" font-size="13" lengthAdjust="spacing" textLength="4" x="292" y="153.0669">&#160;</text></g><!--link dd to tn3--><g id="link_dd_tn3"><path d="M566,108.17 C566,132.91 566,173.27 566,202.53 " fill="none" id="dd-to-tn3" style="stroke:#181818;stroke-width:1.0;stroke-dasharray:1.0,3.0;"/><polygon fill="#181818" points="566,207.86,570,198.86,566,202.86,562,198.86,566,207.86" style="stroke:#181818;stroke-width:1.0;"/><text fill="#000000" font-family="sans-serif" font-size="13" lengthAdjust="spacing" textLength="4" x="567" y="153.0669">&#160;</text></g><!--link dd to tn4--><g id="link_dd_tn4"><path d="M598.57,108.17 C635.88,133.57 697.4,175.46 740.61,204.88 " fill="none" id="dd-to-tn4" style="stroke:#181818;stroke-width:1.0;stroke-dasharray:1.0,3.0;"/><polygon fill="#181818" points="745,207.86,739.8164,199.4856,740.8686,205.0438,735.3104,206.0959,745,207.86" style="stroke:#181818;stroke-width:1.0;"/><text fill="#000000" font-family="sans-serif" font-size="13" lengthAdjust="spacing" textLength="4" x="665" y="153.0669">&#160;</text></g><!--link dd to tn5--><g id="link_dd_tn5"><path d="M642.12,96.12 C711.83,107.17 816.8,128.39 902,165 C926.04,175.33 950.58,190.77 970.54,204.84 " fill="none" id="dd-to-tn5" style="stroke:#181818;stroke-width:1.0;stroke-dasharray:1.0,3.0;"/><polygon fill="#181818" points="974.72,207.82,969.7101,199.3406,970.6475,204.9192,965.0688,205.8566,974.72,207.82" style="stroke:#181818;stroke-width:1.0;"/><text fill="#000000" font-family="sans-serif" font-size="13" lengthAdjust="spacing" textLength="4" x="877" y="153.0669">&#160;</text></g><!--link dd to tn2--><g id="link_dd_tn2"><path d="M533.43,108.17 C496.12,133.57 434.6,175.46 391.39,204.88 " fill="none" id="dd-to-tn2" style="stroke:#181818;stroke-width:1.0;stroke-dasharray:1.0,3.0;"/><polygon fill="#181818" points="387,207.86,396.6896,206.0959,391.1314,205.0438,392.1836,199.4856,387,207.86" style="stroke:#181818;stroke-width:1.0;"/><text fill="#000000" font-family="sans-serif" font-size="13" lengthAdjust="spacing" textLength="4" x="481" y="153.0669">&#160;</text></g><!--SRC=[dP8zJyCm48Pt_ugJzmpzMb3LWIAL0R5K236wzj54iNtHnH5KLVFRSPm0fHyCpVPUtkTUtzbrMVXAiNBWoI3inORO82_94iEA4RtOA5rkcHflKdK-VwE6uP7gi5Z0Kx7DmxrjyDos_b3iu3cs_VQjorso7eIeVt8rkOey-X338NvdVUgWl54sUi3rpLPv37_DYu1NY9JiZf9Nh7PTR5x48I-rh0CoKjXLA8HWrD6mjGYo7s9fcyuWXoEcLKaTQ-IoYl6z-CowMZQIe6e8VWGdu_VSuNzwFD3Zc-Z9G4zkegS3FRs9dWtqx1eTLz_3bhIotVKbmkRmzpdjnUzpa8PqYPmvfVF2OmACkNHxNNiHVxKFxQBR_Xr8UQGd9tfwecT9fxstBstCIFeB]--></g></svg>