<?xml version="1.0" encoding="us-ascii" standalone="no"?><svg xmlns="http://www.w3.org/2000/svg" xmlns:xlink="http://www.w3.org/1999/xlink" contentStyleType="text/css" height="799px" preserveAspectRatio="none" style="width:602px;height:799px;background:#FFFFFF;" version="1.1" viewBox="0 0 602 799" width="602px" zoomAndPan="magnify"><defs/><g><!--cluster Swarm Cluster--><g id="cluster_Swarm Cluster"><rect fill="none" height="786" rx="2.5" ry="2.5" style="stroke:#181818;stroke-width:1.0;" width="370" x="7" y="7"/><text fill="#000000" font-family="sans-serif" font-size="14" font-weight="bold" lengthAdjust="spacing" textLength="116" x="134" y="21.9951">Swarm Cluster</text></g><!--cluster tn1--><g id="cluster_tn1"><polygon fill="#87CEFA" points="129,68,139,58,345,58,345,239,335,249,129,249,129,68" style="stroke:#008000;stroke-width:1.0;"/><line style="stroke:#008000;stroke-width:1.0;" x1="335" x2="345" y1="68" y2="58"/><line style="stroke:#008000;stroke-width:1.0;" x1="129" x2="335" y1="68" y2="68"/><line style="stroke:#008000;stroke-width:1.0;" x1="335" x2="335" y1="68" y2="249"/><text fill="#000000" font-family="sans-serif" font-size="14" font-style="italic" lengthAdjust="spacing" textLength="106" x="180" y="83.9951">&#171;Swarm Node&#187;</text><text fill="#000000" font-family="sans-serif" font-size="14" font-weight="bold" lengthAdjust="spacing" textLength="93" x="186.5" y="100.292">test-node-1</text></g><!--cluster tn2--><g id="cluster_tn2"><polygon fill="#87CEFA" points="129,580,139,570,345,570,345,751,335,761,129,761,129,580" style="stroke:#008000;stroke-width:1.0;"/><line style="stroke:#008000;stroke-width:1.0;" x1="335" x2="345" y1="580" y2="570"/><line style="stroke:#008000;stroke-width:1.0;" x1="129" x2="335" y1="580" y2="580"/><line style="stroke:#008000;stroke-width:1.0;" x1="335" x2="335" y1="580" y2="761"/><text fill="#000000" font-family="sans-serif" font-size="14" font-style="italic" lengthAdjust="spacing" textLength="106" x="180" y="595.9951">&#171;Swarm Node&#187;</text><text fill="#000000" font-family="sans-serif" font-size="14" font-weight="bold" lengthAdjust="spacing" textLength="93" x="186.5" y="612.292">test-node-2</text></g><!--cluster tn3--><g id="cluster_tn3"><polygon fill="#87CEFA" points="129,324,139,314,345,314,345,495,335,505,129,505,129,324" style="stroke:#008000;stroke-width:1.0;"/><line style="stroke:#008000;stroke-width:1.0;" x1="335" x2="345" y1="324" y2="314"/><line style="stroke:#008000;stroke-width:1.0;" x1="129" x2="335" y1="324" y2="324"/><line style="stroke:#008000;stroke-width:1.0;" x1="335" x2="335" y1="324" y2="505"/><text fill="#000000" font-family="sans-serif" font-size="14" font-style="italic" lengthAdjust="spacing" textLength="106" x="180" y="339.9951">&#171;Swarm Node&#187;</text><text fill="#000000" font-family="sans-serif" font-size="14" font-weight="bold" lengthAdjust="spacing" textLength="93" x="186.5" y="356.292">test-node-3</text></g><!--cluster lh--><g id="cluster_lh"><polygon fill="#ADD8E6" points="401,340.5,411,330.5,585,330.5,585,478.5,575,488.5,401,488.5,401,340.5" style="stroke:#008000;stroke-width:1.0;"/><line style="stroke:#008000;stroke-width:1.0;" x1="575" x2="585" y1="340.5" y2="330.5"/><line style="stroke:#008000;stroke-width:1.0;" x1="401" x2="575" y1="340.5" y2="340.5"/><line style="stroke:#008000;stroke-width:1.0;" x1="575" x2="575" y1="340.5" y2="488.5"/><text fill="#000000" font-family="sans-serif" font-size="14" font-style="italic" lengthAdjust="spacing" textLength="86" x="446" y="356.4951">&#171;Your Host&#187;</text><text fill="#000000" font-family="sans-serif" font-size="14" font-weight="bold" lengthAdjust="spacing" textLength="71" x="453.5" y="372.792">localhost</text></g><!--entity dds1--><g id="elem_dds1"><rect fill="#D3D3D3" height="62.5938" rx="2.5" ry="2.5" style="stroke:#181818;stroke-width:0.5;" width="149" x="152.5" y="162"/><rect fill="#D3D3D3" height="10" style="stroke:#181818;stroke-width:0.5;" width="15" x="281.5" y="167"/><rect fill="#D3D3D3" height="2" style="stroke:#181818;stroke-width:0.5;" width="4" x="279.5" y="169"/><rect fill="#D3D3D3" height="2" style="stroke:#181818;stroke-width:0.5;" width="4" x="279.5" y="173"/><text fill="#000000" font-family="sans-serif" font-size="14" font-style="italic" lengthAdjust="spacing" textLength="106" x="169" y="194.9951">&#171;swarm mode&#187;</text><text fill="#000000" font-family="sans-serif" font-size="14" lengthAdjust="spacing" textLength="109" x="167.5" y="211.292">docker deamon</text></g><!--entity dds2--><g id="elem_dds2"><rect fill="#D3D3D3" height="62.5938" rx="2.5" ry="2.5" style="stroke:#181818;stroke-width:0.5;" width="149" x="152.5" y="674"/><rect fill="#D3D3D3" height="10" style="stroke:#181818;stroke-width:0.5;" width="15" x="281.5" y="679"/><rect fill="#D3D3D3" height="2" style="stroke:#181818;stroke-width:0.5;" width="4" x="279.5" y="681"/><rect fill="#D3D3D3" height="2" style="stroke:#181818;stroke-width:0.5;" width="4" x="279.5" y="685"/><text fill="#000000" font-family="sans-serif" font-size="14" font-style="italic" lengthAdjust="spacing" textLength="106" x="169" y="706.9951">&#171;swarm mode&#187;</text><text fill="#000000" font-family="sans-serif" font-size="14" lengthAdjust="spacing" textLength="109" x="167.5" y="723.292">docker deamon</text></g><!--entity dds3--><g id="elem_dds3"><rect fill="#D3D3D3" height="62.5938" rx="2.5" ry="2.5" style="stroke:#181818;stroke-width:0.5;" width="149" x="172.5" y="418"/><rect fill="#D3D3D3" height="10" style="stroke:#181818;stroke-width:0.5;" width="15" x="301.5" y="423"/><rect fill="#D3D3D3" height="2" style="stroke:#181818;stroke-width:0.5;" width="4" x="299.5" y="425"/><rect fill="#D3D3D3" height="2" style="stroke:#181818;stroke-width:0.5;" width="4" x="299.5" y="429"/><text fill="#000000" font-family="sans-serif" font-size="14" font-style="italic" lengthAdjust="spacing" textLength="106" x="189" y="450.9951">&#171;swarm mode&#187;</text><text fill="#000000" font-family="sans-serif" font-size="14" lengthAdjust="spacing" textLength="109" x="187.5" y="467.292">docker deamon</text></g><!--entity dd--><g id="elem_dd"><rect fill="#F8F8FF" height="46.2969" rx="2.5" ry="2.5" style="stroke:#181818;stroke-width:0.5;" width="152" x="417" y="426.5"/><rect fill="#F8F8FF" height="10" style="stroke:#181818;stroke-width:0.5;" width="15" x="549" y="431.5"/><rect fill="#F8F8FF" height="2" style="stroke:#181818;stroke-width:0.5;" width="4" x="547" y="433.5"/><rect fill="#F8F8FF" height="2" style="stroke:#181818;stroke-width:0.5;" width="4" x="547" y="437.5"/><text fill="#000000" font-family="sans-serif" font-size="14" lengthAdjust="spacing" textLength="112" x="432" y="459.4951">docker-machine</text></g><!--link dds1 to dds2--><g id="link_dds1_dds2"><path d="M151.03,227.63 C122.43,244.3 92.98,267.55 77,298 C30.93,385.75 43.7,427.65 77,521 C98.61,581.58 149.75,636.59 186.3,670.25 " fill="none" id="dds1-dds2" style="stroke:#181818;stroke-width:1.0;"/><polygon fill="#181818" points="155.61,225.01,145.812,226.0092,151.2705,227.4938,149.786,232.9523,155.61,225.01" style="stroke:#181818;stroke-width:1.0;"/><polygon fill="#181818" points="190.24,673.84,186.299,664.814,186.5507,670.4653,180.8994,670.7169,190.24,673.84" style="stroke:#181818;stroke-width:1.0;"/><text fill="#000000" font-family="sans-serif" font-size="13" lengthAdjust="spacing" textLength="42" x="78" y="454.0669">swarm</text></g><!--link dds3 to dds2--><g id="link_dds3_dds2"><path d="M244.19,486.15 C240.39,534.45 233.64,620.19 229.83,668.61 " fill="none" id="dds3-dds2" style="stroke:#181818;stroke-width:1.0;"/><polygon fill="#181818" points="244.59,481.14,239.9077,489.8047,244.2043,486.1251,247.8839,490.4217,244.59,481.14" style="stroke:#181818;stroke-width:1.0;"/><polygon fill="#181818" points="229.42,673.75,234.1269,665.0987,229.8199,668.766,226.1526,664.4589,229.42,673.75" style="stroke:#181818;stroke-width:1.0;"/><text fill="#000000" font-family="sans-serif" font-size="13" lengthAdjust="spacing" textLength="42" x="242" y="542.0669">swarm</text></g><!--link dds1 to dds3--><g id="link_dds1_dds3"><path d="M229.81,230.15 C233.61,278.45 240.36,364.19 244.17,412.61 " fill="none" id="dds1-dds3" style="stroke:#181818;stroke-width:1.0;"/><polygon fill="#181818" points="229.41,225.14,226.1161,234.4217,229.7957,230.1251,234.0923,233.8047,229.41,225.14" style="stroke:#181818;stroke-width:1.0;"/><polygon fill="#181818" points="244.58,417.75,247.8474,408.4589,244.1801,412.766,239.8731,409.0987,244.58,417.75" style="stroke:#181818;stroke-width:1.0;"/><text fill="#000000" font-family="sans-serif" font-size="13" lengthAdjust="spacing" textLength="42" x="236" y="286.0669">swarm</text></g><!--link dd to tn1--><g id="link_dd_tn1"><path d="M479.36,426.29 C460.535,395.635 425.4425,338.4975 394.8113,288.625 C379.4956,263.6888 365.2953,240.5688 354.8014,223.4834 C352.1779,219.2121 349.7861,215.3179 347.6664,211.8669 C347.1365,211.0041 346.6236,210.169 346.1283,209.3627 C345.8807,208.9595 345.6374,208.5635 345.3987,208.1748 C345.2793,207.9805 345.1611,207.7879 345.044,207.5973 " fill="none" id="dd-to-tn1" style="stroke:#181818;stroke-width:1.0;stroke-dasharray:1.0,3.0;"/><polygon fill="#181818" points="345.044,207.5973,346.3459,217.3597,347.6608,211.8578,353.1628,213.1727,345.044,207.5973" style="stroke:#181818;stroke-width:1.0;"/><text fill="#000000" font-family="sans-serif" font-size="13" lengthAdjust="spacing" textLength="4" x="392" y="286.0669">&#160;</text></g><!--link dd to tn3--><g id="link_dd_tn3"><path d="M475.69,426.47 C462.72,410.28 443.1275,387.7975 419.2375,366.545 C407.2925,355.9188 394.2731,345.6 380.47,336.5291 C373.5684,331.9936 366.4709,327.7701 359.2138,323.9761 C355.5853,322.079 351.9168,320.2894 348.213,318.6218 C347.287,318.2049 346.3589,317.7957 345.4286,317.3943 " fill="none" id="dd-to-tn3" style="stroke:#181818;stroke-width:1.0;stroke-dasharray:1.0,3.0;"/><polygon fill="#181818" points="345.4286,317.3943,352.1075,324.6325,350.0195,319.3751,355.2768,317.2871,345.4286,317.3943" style="stroke:#181818;stroke-width:1.0;"/><text fill="#000000" font-family="sans-serif" font-size="13" lengthAdjust="spacing" textLength="4" x="165" y="286.0669">&#160;</text></g><!--reverse link tn2 to dd--><g id="link_tn2_dd"><path d="M345.1691,691.2062 C346.1071,689.6788 347.1165,688.035 348.1924,686.2831 C350.3443,682.7791 352.762,678.8423 355.4058,674.5375 C365.9809,657.3181 380.1731,634.21 395.4338,609.3625 C425.955,559.6675 460.75,503.015 479.43,472.6 " fill="none" id="tn2-backto-dd" style="stroke:#181818;stroke-width:1.0;stroke-dasharray:1.0,3.0;"/><polygon fill="#181818" points="345.1691,691.2062,353.2874,685.6301,347.7856,686.9455,346.4703,681.4436,345.1691,691.2062" style="stroke:#181818;stroke-width:1.0;"/><text fill="#000000" font-family="sans-serif" font-size="13" lengthAdjust="spacing" textLength="4" x="443" y="542.0669">&#160;</text></g><!--SRC=[dPAnReCm48PtFyN9EqF2LaKCpK27Aak6ggE3Ju2mVSWsgb3KF7jjGvEqqA7nn1t_Vz-TpwvhJI-iq6188fpPYQn4koT55agBQDX9L5rjQJ0oPNUxTneil93pHG6lRTtuPpNWKdRy45R38PJzrXsxCKa_6NDNRaMw9uF61pY4iwZZl31IgA01FHKhcm1_QrgFVpWIMT-HIol6Y6tQCEHQIUVH8lcnHyQOnIe8QeN0fo7sQeW2FhUOhefxT3wBdzc6Wt3WpGP-JJt9RnDoILM75YGAJIQvf7JHTjzoCeLcrr3R6RLz3BNz1ogVKVbZg7mT5M0JI54bL5naCgW6VZwiCri0CYsgfZKu4zRs6CjFDvfbHHhu2NZgWhEffzNyJP_Vyk47N8gurf3ZroXFKTh09JXIz0K0]--></g></svg>