<?xml version="1.0" encoding="us-ascii" standalone="no"?><svg xmlns="http://www.w3.org/2000/svg" xmlns:xlink="http://www.w3.org/1999/xlink" contentStyleType="text/css" height="883px" preserveAspectRatio="none" style="width:444px;height:883px;background:#FFFFFF;" version="1.1" viewBox="0 0 444 883" width="444px" zoomAndPan="magnify"><defs/><g><!--cluster tn1--><g id="cluster_tn1"><rect fill="#F0F8FF" height="619" rx="2.5" ry="2.5" style="stroke:#181818;stroke-width:1.0;" width="431" x="7" y="133"/><text fill="#000000" font-family="sans-serif" font-size="14" font-style="italic" lengthAdjust="spacing" textLength="54" x="195.5" y="147.9951">&#171;node&#187;</text><text fill="#000000" font-family="sans-serif" font-size="14" font-weight="bold" lengthAdjust="spacing" textLength="93" x="176" y="164.292">test-node-X</text></g><!--cluster dack-sender--><g id="cluster_dack-sender"><rect fill="#FFFAF0" height="146" rx="2.5" ry="2.5" style="stroke:#181818;stroke-width:1.0;" width="380" x="32" y="582"/><text fill="#000000" font-family="sans-serif" font-size="14" font-style="italic" lengthAdjust="spacing" textLength="97" x="173.5" y="596.9951">&#171;pseudopod&#187;</text><text fill="#000000" font-family="sans-serif" font-size="14" font-weight="bold" lengthAdjust="spacing" textLength="99" x="172.5" y="613.292">dack-sender</text></g><!--cluster dacker--><g id="cluster_dacker"><rect fill="#FFFAF0" height="146" rx="2.5" ry="2.5" style="stroke:#181818;stroke-width:1.0;" width="380" x="32" y="387"/><text fill="#000000" font-family="sans-serif" font-size="14" font-style="italic" lengthAdjust="spacing" textLength="97" x="173.5" y="401.9951">&#171;pseudopod&#187;</text><text fill="#000000" font-family="sans-serif" font-size="14" font-weight="bold" lengthAdjust="spacing" textLength="54" x="195" y="418.292">dacker</text></g><!--cluster input-receiver--><g id="cluster_input-receiver"><rect fill="#FFFAF0" height="146" rx="2.5" ry="2.5" style="stroke:#181818;stroke-width:1.0;" width="383" x="31" y="192"/><text fill="#000000" font-family="sans-serif" font-size="14" font-style="italic" lengthAdjust="spacing" textLength="97" x="174" y="206.9951">&#171;pseudopod&#187;</text><text fill="#000000" font-family="sans-serif" font-size="14" font-weight="bold" lengthAdjust="spacing" textLength="112" x="166.5" y="223.292">input-receiver</text></g><!--entity dacksend_1.1--><g id="elem_dacksend_1.1"><rect fill="#F8F8FF" height="62.5938" rx="2.5" ry="2.5" style="stroke:#181818;stroke-width:0.5;" width="134" x="262" y="641"/><rect fill="#F8F8FF" height="10" style="stroke:#181818;stroke-width:0.5;" width="15" x="376" y="646"/><rect fill="#F8F8FF" height="2" style="stroke:#181818;stroke-width:0.5;" width="4" x="374" y="648"/><rect fill="#F8F8FF" height="2" style="stroke:#181818;stroke-width:0.5;" width="4" x="374" y="652"/><text fill="#000000" font-family="sans-serif" font-size="14" font-style="italic" lengthAdjust="spacing" textLength="94" x="277" y="673.9951">&#171;standalone&#187;</text><text fill="#000000" font-family="sans-serif" font-size="14" lengthAdjust="spacing" textLength="87" x="280.5" y="690.292">dack-sender</text></g><!--entity dacksendproxy_1.1--><g id="elem_dacksendproxy_1.1"><rect fill="#F8F8FF" height="78.8906" rx="2.5" ry="2.5" style="stroke:#181818;stroke-width:0.5;" width="134" x="48" y="633"/><rect fill="#F8F8FF" height="10" style="stroke:#181818;stroke-width:0.5;" width="15" x="162" y="638"/><rect fill="#F8F8FF" height="2" style="stroke:#181818;stroke-width:0.5;" width="4" x="160" y="640"/><rect fill="#F8F8FF" height="2" style="stroke:#181818;stroke-width:0.5;" width="4" x="160" y="644"/><text fill="#000000" font-family="sans-serif" font-size="14" font-style="italic" lengthAdjust="spacing" textLength="94" x="63" y="665.9951">&#171;standalone&#187;</text><text fill="#000000" font-family="sans-serif" font-size="14" lengthAdjust="spacing" textLength="87" x="64.5" y="682.292">dack-sender</text><text fill="#000000" font-family="sans-serif" font-size="14" lengthAdjust="spacing" textLength="91" x="64.5" y="698.5889">proxy sidecar</text></g><!--entity dack_1.1--><g id="elem_dack_1.1"><rect fill="#F8F8FF" height="62.5938" rx="2.5" ry="2.5" style="stroke:#181818;stroke-width:0.5;" width="134" x="48" y="446"/><rect fill="#F8F8FF" height="10" style="stroke:#181818;stroke-width:0.5;" width="15" x="162" y="451"/><rect fill="#F8F8FF" height="2" style="stroke:#181818;stroke-width:0.5;" width="4" x="160" y="453"/><rect fill="#F8F8FF" height="2" style="stroke:#181818;stroke-width:0.5;" width="4" x="160" y="457"/><text fill="#000000" font-family="sans-serif" font-size="14" font-style="italic" lengthAdjust="spacing" textLength="94" x="63" y="478.9951">&#171;standalone&#187;</text><text fill="#000000" font-family="sans-serif" font-size="14" lengthAdjust="spacing" textLength="47" x="86.5" y="495.292">dacker</text></g><!--entity dackproxy_1.1--><g id="elem_dackproxy_1.1"><rect fill="#F8F8FF" height="78.8906" rx="2.5" ry="2.5" style="stroke:#181818;stroke-width:0.5;" width="134" x="262" y="438"/><rect fill="#F8F8FF" height="10" style="stroke:#181818;stroke-width:0.5;" width="15" x="376" y="443"/><rect fill="#F8F8FF" height="2" style="stroke:#181818;stroke-width:0.5;" width="4" x="374" y="445"/><rect fill="#F8F8FF" height="2" style="stroke:#181818;stroke-width:0.5;" width="4" x="374" y="449"/><text fill="#000000" font-family="sans-serif" font-size="14" font-style="italic" lengthAdjust="spacing" textLength="94" x="277" y="470.9951">&#171;standalone&#187;</text><text fill="#000000" font-family="sans-serif" font-size="14" lengthAdjust="spacing" textLength="87" x="278.5" y="487.292">dack-sender</text><text fill="#000000" font-family="sans-serif" font-size="14" lengthAdjust="spacing" textLength="91" x="278.5" y="503.5889">proxy sidecar</text></g><!--entity inrec_1.1--><g id="elem_inrec_1.1"><rect fill="#F8F8FF" height="62.5938" rx="2.5" ry="2.5" style="stroke:#181818;stroke-width:0.5;" width="135" x="262.5" y="251"/><rect fill="#F8F8FF" height="10" style="stroke:#181818;stroke-width:0.5;" width="15" x="377.5" y="256"/><rect fill="#F8F8FF" height="2" style="stroke:#181818;stroke-width:0.5;" width="4" x="375.5" y="258"/><rect fill="#F8F8FF" height="2" style="stroke:#181818;stroke-width:0.5;" width="4" x="375.5" y="262"/><text fill="#000000" font-family="sans-serif" font-size="14" font-style="italic" lengthAdjust="spacing" textLength="94" x="278" y="283.9951">&#171;standalone&#187;</text><text fill="#000000" font-family="sans-serif" font-size="14" lengthAdjust="spacing" textLength="95" x="277.5" y="300.292">input-receiver</text></g><!--entity inrecproxy_1.1--><g id="elem_inrecproxy_1.1"><rect fill="#F8F8FF" height="78.8906" rx="2.5" ry="2.5" style="stroke:#181818;stroke-width:0.5;" width="135" x="47.5" y="243"/><rect fill="#F8F8FF" height="10" style="stroke:#181818;stroke-width:0.5;" width="15" x="162.5" y="248"/><rect fill="#F8F8FF" height="2" style="stroke:#181818;stroke-width:0.5;" width="4" x="160.5" y="250"/><rect fill="#F8F8FF" height="2" style="stroke:#181818;stroke-width:0.5;" width="4" x="160.5" y="254"/><text fill="#000000" font-family="sans-serif" font-size="14" font-style="italic" lengthAdjust="spacing" textLength="94" x="63" y="275.9951">&#171;standalone&#187;</text><text fill="#000000" font-family="sans-serif" font-size="14" lengthAdjust="spacing" textLength="95" x="62.5" y="292.292">input-receiver</text><text fill="#000000" font-family="sans-serif" font-size="14" lengthAdjust="spacing" textLength="91" x="62.5" y="308.5889">proxy sidecar</text></g><!--entity source--><g id="elem_source"><rect fill="#F1F1F1" height="62.5938" rx="2.5" ry="2.5" style="stroke:#181818;stroke-width:0.5;" width="142" x="259" y="7"/><rect fill="#F1F1F1" height="10" style="stroke:#181818;stroke-width:0.5;" width="15" x="381" y="12"/><rect fill="#F1F1F1" height="2" style="stroke:#181818;stroke-width:0.5;" width="4" x="379" y="14"/><rect fill="#F1F1F1" height="2" style="stroke:#181818;stroke-width:0.5;" width="4" x="379" y="18"/><text fill="#000000" font-family="sans-serif" font-size="14" font-style="italic" lengthAdjust="spacing" textLength="102" x="274" y="39.9951">&#171;local service&#187;</text><text fill="#000000" font-family="sans-serif" font-size="14" lengthAdjust="spacing" textLength="88" x="281" y="56.292">input-source</text></g><!--entity dest--><g id="elem_dest"><rect fill="#F1F1F1" height="62.5938" rx="2.5" ry="2.5" style="stroke:#181818;stroke-width:0.5;" width="142" x="44" y="815"/><rect fill="#F1F1F1" height="10" style="stroke:#181818;stroke-width:0.5;" width="15" x="166" y="820"/><rect fill="#F1F1F1" height="2" style="stroke:#181818;stroke-width:0.5;" width="4" x="164" y="822"/><rect fill="#F1F1F1" height="2" style="stroke:#181818;stroke-width:0.5;" width="4" x="164" y="826"/><text fill="#000000" font-family="sans-serif" font-size="14" font-style="italic" lengthAdjust="spacing" textLength="102" x="59" y="847.9951">&#171;local service&#187;</text><text fill="#000000" font-family="sans-serif" font-size="14" lengthAdjust="spacing" textLength="82" x="69" y="864.292">output-dest</text></g><!--link dack_1.1 to dackproxy_1.1--><g id="link_dack_1.1_dackproxy_1.1"><path d="M182.12,477.5 C205.81,477.5 232.54,477.5 256.65,477.5 " fill="none" id="dack_1.1-to-dackproxy_1.1" style="stroke:#181818;stroke-width:1.0;"/><polygon fill="#181818" points="261.75,477.5,252.75,473.5,256.75,477.5,252.75,481.5,261.75,477.5" style="stroke:#181818;stroke-width:1.0;"/><text fill="#000000" font-family="sans-serif" font-size="13" lengthAdjust="spacing" textLength="43" x="200.5" y="470.5669">events</text></g><!--reverse link dacksendproxy_1.1 to dacksend_1.1--><g id="link_dacksendproxy_1.1_dacksend_1.1"><path d="M187.22,672.5 C211.32,672.5 238.05,672.5 261.75,672.5 " fill="none" id="dacksendproxy_1.1-backto-dacksend_1.1" style="stroke:#181818;stroke-width:1.0;"/><polygon fill="#181818" points="182.12,672.5,191.12,676.5,187.12,672.5,191.12,668.5,182.12,672.5" style="stroke:#181818;stroke-width:1.0;"/><text fill="#000000" font-family="sans-serif" font-size="13" lengthAdjust="spacing" textLength="43" x="200.5" y="665.5669">events</text></g><!--reverse link inrecproxy_1.1 to inrec_1.1--><g id="link_inrecproxy_1.1_inrec_1.1"><path d="M187.83,282.5 C211.9,282.5 238.56,282.5 262.24,282.5 " fill="none" id="inrecproxy_1.1-backto-inrec_1.1" style="stroke:#181818;stroke-width:1.0;"/><polygon fill="#181818" points="182.73,282.5,191.73,286.5,187.73,282.5,191.73,278.5,182.73,282.5" style="stroke:#181818;stroke-width:1.0;"/><text fill="#000000" font-family="sans-serif" font-size="13" lengthAdjust="spacing" textLength="43" x="201" y="275.5669">events</text></g><!--link inrecproxy_1.1 to dack_1.1--><g id="link_inrecproxy_1.1_dack_1.1"><path d="M115,322.09 C115,356.66 115,406.94 115,440.64 " fill="none" id="inrecproxy_1.1-to-dack_1.1" style="stroke:#181818;stroke-width:1.0;"/><polygon fill="#181818" points="115,445.9,119,436.9,115,440.9,111,436.9,115,445.9" style="stroke:#181818;stroke-width:1.0;"/><text fill="#000000" font-family="sans-serif" font-size="13" lengthAdjust="spacing" textLength="43" x="116" y="367.0669">events</text></g><!--link dackproxy_1.1 to dacksend_1.1--><g id="link_dackproxy_1.1_dacksend_1.1"><path d="M329,517.09 C329,551.66 329,601.94 329,635.64 " fill="none" id="dackproxy_1.1-to-dacksend_1.1" style="stroke:#181818;stroke-width:1.0;"/><polygon fill="#181818" points="329,640.9,333,631.9,329,635.9,325,631.9,329,640.9" style="stroke:#181818;stroke-width:1.0;"/><text fill="#000000" font-family="sans-serif" font-size="13" lengthAdjust="spacing" textLength="43" x="330" y="562.0669">events</text></g><!--link source to inrec_1.1--><g id="link_source_inrec_1.1"><path d="M330,70.15 C330,114.94 330,198.11 330,245.66 " fill="none" id="source-to-inrec_1.1" style="stroke:#181818;stroke-width:1.0;"/><polygon fill="#181818" points="330,250.72,334,241.72,330,245.72,326,241.72,330,250.72" style="stroke:#181818;stroke-width:1.0;"/><text fill="#000000" font-family="sans-serif" font-size="13" lengthAdjust="spacing" textLength="43" x="331" y="113.0669">events</text></g><!--link dacksendproxy_1.1 to dest--><g id="link_dacksendproxy_1.1_dest"><path d="M115,712.1 C115,741.28 115,781.06 115,809.57 " fill="none" id="dacksendproxy_1.1-to-dest" style="stroke:#181818;stroke-width:1.0;"/><polygon fill="#181818" points="115,814.76,119,805.76,115,809.76,111,805.76,115,814.76" style="stroke:#181818;stroke-width:1.0;"/><text fill="#000000" font-family="sans-serif" font-size="13" lengthAdjust="spacing" textLength="43" x="116" y="781.0669">events</text></g><!--SRC=[hPCxQyCm58Lt_GhXNOMinHZwe5qoDKCx58egNH8JHJ9wc9QI_zuhEJYIuv0KgicoppdtExBjjgtkkEKxAiokCngqfp-4ulhaOhks9cZvO9InTUqyrv8hr3GDVTuOvrythGUo9yIDAHO4ojOApgK85Pm7Yn4huAiDA3Mlwnm4QJeZKVc4TxWQfisAjP4Hwawr0kvLI4p7FXN21S-S2LP0HRcZmoMjQsK4LzI1xT7PDBd911zT4fnFddWnuo3aMBdog64HXhqbZzSBEj8D1vAf9TPW3hG4Mz6oyQ2DAoCgz948zt7xiRY9O_BtSy7-hZjhlhwfQoK8NgQb9-SYztCT_e2VaVyVzGNYAVBmDU0DQFihqQSM7Dngt5xPeRJFrKXf5tfW4p8U77jXJLd-baAFqnmfFWksFEYALpjgZosIiCGOLOHC-DZZ8VLaSAR91fTfXxylXOm09_ZJQVXhPK2_]--></g></svg>