<?xml version="1.0" encoding="us-ascii" standalone="no"?><svg xmlns="http://www.w3.org/2000/svg" xmlns:xlink="http://www.w3.org/1999/xlink" contentStyleType="text/css" height="369px" preserveAspectRatio="none" style="width:469px;height:369px;background:#FFFFFF;" version="1.1" viewBox="0 0 469 369" width="469px" zoomAndPan="magnify"><defs/><g><!--cluster Swarm Cluster--><g id="cluster_Swarm Cluster"><rect fill="#FFF5EE" height="356" rx="2.5" ry="2.5" style="stroke:#181818;stroke-width:1.0;" width="134" x="168" y="7"/><text fill="#000000" font-family="sans-serif" font-size="14" font-style="italic" lengthAdjust="spacing" textLength="64" x="203" y="21.9951">&#171;cluster&#187;</text><text fill="#000000" font-family="sans-serif" font-size="14" font-weight="bold" lengthAdjust="spacing" textLength="116" x="177" y="38.292">Swarm Cluster</text></g><!--entity tn1--><g id="elem_tn1"><rect fill="#F0F8FF" height="52.5938" rx="2.5" ry="2.5" style="stroke:#181818;stroke-width:0.5;" width="102" x="184" y="58"/><text fill="#000000" font-family="sans-serif" font-size="14" font-style="italic" lengthAdjust="spacing" textLength="54" x="208" y="80.9951">&#171;node&#187;</text><text fill="#000000" font-family="sans-serif" font-size="14" lengthAdjust="spacing" textLength="82" x="194" y="97.292">test-node-1</text></g><!--entity tn2--><g id="elem_tn2"><rect fill="#F0F8FF" height="52.5938" rx="2.5" ry="2.5" style="stroke:#181818;stroke-width:0.5;" width="102" x="184" y="176"/><text fill="#000000" font-family="sans-serif" font-size="14" font-style="italic" lengthAdjust="spacing" textLength="54" x="208" y="198.9951">&#171;node&#187;</text><text fill="#000000" font-family="sans-serif" font-size="14" lengthAdjust="spacing" textLength="82" x="194" y="215.292">test-node-2</text></g><!--entity tn3--><g id="elem_tn3"><rect fill="#F0F8FF" height="52.5938" rx="2.5" ry="2.5" style="stroke:#181818;stroke-width:0.5;" width="102" x="184" y="294"/><text fill="#000000" font-family="sans-serif" font-size="14" font-style="italic" lengthAdjust="spacing" textLength="54" x="208" y="316.9951">&#171;node&#187;</text><text fill="#000000" font-family="sans-serif" font-size="14" lengthAdjust="spacing" textLength="82" x="194" y="333.292">test-node-3</text></g><!--entity source--><g id="elem_source"><rect fill="#F1F1F1" height="62.5938" rx="2.5" ry="2.5" style="stroke:#181818;stroke-width:0.5;" width="142" x="7" y="289"/><rect fill="#F1F1F1" height="10" style="stroke:#181818;stroke-width:0.5;" width="15" x="129" y="294"/><rect fill="#F1F1F1" height="2" style="stroke:#181818;stroke-width:0.5;" width="4" x="127" y="296"/><rect fill="#F1F1F1" height="2" style="stroke:#181818;stroke-width:0.5;" width="4" x="127" y="300"/><text fill="#000000" font-family="sans-serif" font-size="14" font-style="italic" lengthAdjust="spacing" textLength="102" x="22" y="321.9951">&#171;local service&#187;</text><text fill="#000000" font-family="sans-serif" font-size="14" lengthAdjust="spacing" textLength="88" x="29" y="338.292">input-source</text></g><!--entity dest--><g id="elem_dest"><rect fill="#F1F1F1" height="62.5938" rx="2.5" ry="2.5" style="stroke:#181818;stroke-width:0.5;" width="142" x="321" y="53"/><rect fill="#F1F1F1" height="10" style="stroke:#181818;stroke-width:0.5;" width="15" x="443" y="58"/><rect fill="#F1F1F1" height="2" style="stroke:#181818;stroke-width:0.5;" width="4" x="441" y="60"/><rect fill="#F1F1F1" height="2" style="stroke:#181818;stroke-width:0.5;" width="4" x="441" y="64"/><text fill="#000000" font-family="sans-serif" font-size="14" font-style="italic" lengthAdjust="spacing" textLength="102" x="336" y="85.9951">&#171;local service&#187;</text><text fill="#000000" font-family="sans-serif" font-size="14" lengthAdjust="spacing" textLength="82" x="346" y="102.292">output-dest</text></g><!--link tn1 to tn2--><!--link tn2 to tn3--><!--reverse link tn1 to source--><g id="link_tn1_source"><path d="M211.4,115.5 C197.99,132.89 181.11,155.36 167,176 C141.02,213.99 113.43,259.36 95.98,288.76 " fill="none" id="tn1-backto-source" style="stroke:#181818;stroke-width:1.0;"/><polygon fill="#181818" points="214.73,111.19,206.0623,115.8667,211.6732,115.1467,212.3931,120.7576,214.73,111.19" style="stroke:#181818;stroke-width:1.0;"/></g><!--reverse link tn2 to source--><g id="link_tn2_source"><path d="M195.89,232.4 C172.61,249.6 143.1,271.4 119.43,288.89 " fill="none" id="tn2-backto-source" style="stroke:#181818;stroke-width:1.0;"/><polygon fill="#181818" points="200.16,229.24,190.5463,231.3795,196.1412,232.2148,195.306,237.8096,200.16,229.24" style="stroke:#181818;stroke-width:1.0;"/></g><!--reverse link tn3 to source--><g id="link_tn3_source"><path d="M178.56,320.5 C168.75,320.5 158.95,320.5 149.14,320.5 " fill="none" id="tn3-backto-source" style="stroke:#181818;stroke-width:1.0;"/><polygon fill="#181818" points="183.69,320.5,174.69,316.5,178.69,320.5,174.69,324.5,183.69,320.5" style="stroke:#181818;stroke-width:1.0;"/></g><!--reverse link dest to tn1--><g id="link_dest_tn1"><path d="M315.77,84.5 C305.92,84.5 296.06,84.5 286.21,84.5 " fill="none" id="dest-backto-tn1" style="stroke:#181818;stroke-width:1.0;"/><polygon fill="#181818" points="320.92,84.5,311.92,80.5,315.92,84.5,311.92,88.5,320.92,84.5" style="stroke:#181818;stroke-width:1.0;"/></g><!--reverse link dest to tn2--><g id="link_dest_tn2"><path d="M346.15,119.37 C321.73,137.42 292.18,159.25 269.69,175.87 " fill="none" id="dest-backto-tn2" style="stroke:#181818;stroke-width:1.0;"/><polygon fill="#181818" points="350.34,116.28,340.7263,118.4195,346.3212,119.2548,345.486,124.8496,350.34,116.28" style="stroke:#181818;stroke-width:1.0;"/></g><!--reverse link dest to tn3--><g id="link_dest_tn3"><path d="M371.81,120.63 C354.56,150.07 328.7,192.96 304,229 C288.59,251.49 269.74,276.03 255.64,293.88 " fill="none" id="dest-backto-tn3" style="stroke:#181818;stroke-width:1.0;"/><polygon fill="#181818" points="374.5,116.02,366.5207,121.7933,371.9886,120.3435,373.4384,125.8115,374.5,116.02" style="stroke:#181818;stroke-width:1.0;"/></g><!--SRC=[bP4_RyCW4CLtFWNopc1xjIoraTgbcuSELGSAfzWAvYp-j4ELxzx3M0bDdQ5CtEdz7lSEVvhi8fsSkS9vGGisy6_6wNn8TJewZ5OVqA3hEX-arTAGfk_vyuW-l8vJ07Pcp5zS72YI7GtSSr4c-W2EB0QGmmZ6xEiM3r7ZWfgKJzIH9h-sAxQeqr0FPbBmQE8wqpLFHSF583n6fw3YqlDyvLrdK4d3FRXF8lk-X326H6dmOMNIPOTWryJLy2NTp0yvOSNBi7aRXJQGdKXpYtgr3xRcbo1PVRxFD1lJ_8DfDwRzoz2wqllYRPoq1lik-kJDal_lNaj_dNSdNjP6VLCtDtMxEQSgRJ1x5bLRL8pz0000]--></g></svg>