<?xml version="1.0" encoding="us-ascii" standalone="no"?><svg xmlns="http://www.w3.org/2000/svg" xmlns:xlink="http://www.w3.org/1999/xlink" contentStyleType="text/css" height="372px" preserveAspectRatio="none" style="width:587px;height:372px;background:#FFFFFF;" version="1.1" viewBox="0 0 587 372" width="587px" zoomAndPan="magnify"><defs/><g><!--cluster Swarm Cluster--><g id="cluster_Swarm Cluster"><rect fill="none" height="114" rx="2.5" ry="2.5" style="stroke:#181818;stroke-width:1.0;" width="574" x="7" y="7"/><text fill="#000000" font-family="sans-serif" font-size="14" font-weight="bold" lengthAdjust="spacing" textLength="116" x="236" y="21.9951">Swarm Cluster</text></g><!--cluster lh--><g id="cluster_lh"><rect fill="none" height="114" rx="2.5" ry="2.5" style="stroke:#181818;stroke-width:1.0;" width="351" x="170" y="252"/><text fill="#000000" font-family="sans-serif" font-size="14" font-weight="bold" lengthAdjust="spacing" textLength="77" x="307" y="266.9951">Your host</text></g><!--entity dacksend--><g id="elem_dacksend"><rect fill="#D3D3D3" height="62.5938" rx="2.5" ry="2.5" style="stroke:#181818;stroke-width:0.5;" width="157" x="407.5" y="42"/><rect fill="#D3D3D3" height="10" style="stroke:#181818;stroke-width:0.5;" width="15" x="544.5" y="47"/><rect fill="#D3D3D3" height="2" style="stroke:#181818;stroke-width:0.5;" width="4" x="542.5" y="49"/><rect fill="#D3D3D3" height="2" style="stroke:#181818;stroke-width:0.5;" width="4" x="542.5" y="53"/><text fill="#000000" font-family="sans-serif" font-size="14" font-style="italic" lengthAdjust="spacing" textLength="117" x="422.5" y="74.9951">&#171;cluster service&#187;</text><text fill="#000000" font-family="sans-serif" font-size="14" lengthAdjust="spacing" textLength="87" x="437.5" y="91.292">dack-sender</text></g><!--entity dack--><g id="elem_dack"><rect fill="#D3D3D3" height="62.5938" rx="2.5" ry="2.5" style="stroke:#181818;stroke-width:0.5;" width="157" x="215.5" y="42"/><rect fill="#D3D3D3" height="10" style="stroke:#181818;stroke-width:0.5;" width="15" x="352.5" y="47"/><rect fill="#D3D3D3" height="2" style="stroke:#181818;stroke-width:0.5;" width="4" x="350.5" y="49"/><rect fill="#D3D3D3" height="2" style="stroke:#181818;stroke-width:0.5;" width="4" x="350.5" y="53"/><text fill="#000000" font-family="sans-serif" font-size="14" font-style="italic" lengthAdjust="spacing" textLength="117" x="230.5" y="74.9951">&#171;cluster service&#187;</text><text fill="#000000" font-family="sans-serif" font-size="14" lengthAdjust="spacing" textLength="47" x="265.5" y="91.292">dacker</text></g><!--entity inrec--><g id="elem_inrec"><rect fill="#D3D3D3" height="62.5938" rx="2.5" ry="2.5" style="stroke:#181818;stroke-width:0.5;" width="157" x="23.5" y="42"/><rect fill="#D3D3D3" height="10" style="stroke:#181818;stroke-width:0.5;" width="15" x="160.5" y="47"/><rect fill="#D3D3D3" height="2" style="stroke:#181818;stroke-width:0.5;" width="4" x="158.5" y="49"/><rect fill="#D3D3D3" height="2" style="stroke:#181818;stroke-width:0.5;" width="4" x="158.5" y="53"/><text fill="#000000" font-family="sans-serif" font-size="14" font-style="italic" lengthAdjust="spacing" textLength="117" x="38.5" y="74.9951">&#171;cluster service&#187;</text><text fill="#000000" font-family="sans-serif" font-size="14" lengthAdjust="spacing" textLength="95" x="49.5" y="91.292">input-receiver</text></g><!--entity dest--><g id="elem_dest"><rect fill="#F8F8FF" height="62.5938" rx="2.5" ry="2.5" style="stroke:#181818;stroke-width:0.5;" width="142" x="363" y="287"/><rect fill="#F8F8FF" height="10" style="stroke:#181818;stroke-width:0.5;" width="15" x="485" y="292"/><rect fill="#F8F8FF" height="2" style="stroke:#181818;stroke-width:0.5;" width="4" x="483" y="294"/><rect fill="#F8F8FF" height="2" style="stroke:#181818;stroke-width:0.5;" width="4" x="483" y="298"/><text fill="#000000" font-family="sans-serif" font-size="14" font-style="italic" lengthAdjust="spacing" textLength="102" x="378" y="319.9951">&#171;local service&#187;</text><text fill="#000000" font-family="sans-serif" font-size="14" lengthAdjust="spacing" textLength="82" x="388" y="336.292">output-dest</text></g><!--entity source--><g id="elem_source"><rect fill="#F8F8FF" height="62.5938" rx="2.5" ry="2.5" style="stroke:#181818;stroke-width:0.5;" width="142" x="186" y="287"/><rect fill="#F8F8FF" height="10" style="stroke:#181818;stroke-width:0.5;" width="15" x="308" y="292"/><rect fill="#F8F8FF" height="2" style="stroke:#181818;stroke-width:0.5;" width="4" x="306" y="294"/><rect fill="#F8F8FF" height="2" style="stroke:#181818;stroke-width:0.5;" width="4" x="306" y="298"/><text fill="#000000" font-family="sans-serif" font-size="14" font-style="italic" lengthAdjust="spacing" textLength="102" x="201" y="319.9951">&#171;local service&#187;</text><text fill="#000000" font-family="sans-serif" font-size="14" lengthAdjust="spacing" textLength="88" x="208" y="336.292">input-source</text></g><!--reverse link inrec to source--><g id="link_inrec_source"><path d="M124.5,109.78 C154.94,157.5 208.74,241.84 237.53,286.97 " fill="none" id="inrec-backto-source" style="stroke:#181818;stroke-width:1.0;"/><polygon fill="#181818" points="121.63,105.28,123.0787,115.0217,124.3107,109.5007,129.8318,110.7326,121.63,105.28" style="stroke:#181818;stroke-width:1.0;"/></g><!--link inrec to dack--><g id="link_inrec_dack"><path d="M180.75,73.5 C190.54,73.5 200.34,73.5 210.13,73.5 " fill="none" id="inrec-to-dack" style="stroke:#181818;stroke-width:1.0;"/><polygon fill="#181818" points="215.26,73.5,206.26,69.5,210.26,73.5,206.26,77.5,215.26,73.5" style="stroke:#181818;stroke-width:1.0;"/></g><!--link dack to dacksend--><g id="link_dack_dacksend"><path d="M372.75,73.5 C382.54,73.5 392.34,73.5 402.13,73.5 " fill="none" id="dack-to-dacksend" style="stroke:#181818;stroke-width:1.0;"/><polygon fill="#181818" points="407.26,73.5,398.26,69.5,402.26,73.5,398.26,77.5,407.26,73.5" style="stroke:#181818;stroke-width:1.0;"/></g><!--link dacksend to dest--><g id="link_dacksend_dest"><path d="M479.41,105.28 C469.76,150.37 451.82,234.22 441.62,281.91 " fill="none" id="dacksend-to-dest" style="stroke:#181818;stroke-width:1.0;"/><polygon fill="#181818" points="440.53,286.97,446.3206,279.0033,441.5737,282.0802,438.4969,277.3333,440.53,286.97" style="stroke:#181818;stroke-width:1.0;"/></g><!--SRC=[ZL6zRiCW4Dvv2kITDuWyD9NSeUhGgAew4ZZPo1YY0r95LTwz1xYkAtie4tVSztCVOJJk8b5Et7aD_8kTFMh0exSUUOS0Zfsb6dlqoUdIFHm-V4B-v4DiM_vi-Y4-s0JRiTEdn8c_4EtFt6cybT4xOs7HLNwwU0SkaZYdi-6nNadB0-3Lg4pL3IJzFfW8-_FAfX01LuWYtg6yPMM6eA9qlGNUL8l72cXc0x-66atS8e3J-LK6dkjSyXsLFUmAzXy8HPAY87zWhZFKE2ftiVS_cvG_oS4Kb1rebnMnJp4pQvZVyuLlacKRAu5O5HH8lUw0ycVMDo7UX6YhPLQDYrTgvFLPoM0fSuXiILCyvZPvOjy0]--></g></svg>